<?xml version="1.0" encoding="utf-8"?>
<!-- Generator: Adobe Illustrator 18.1.1, SVG Export Plug-In . SVG Version: 6.00 Build 0)  -->
<svg version="1.1" xmlns="http://www.w3.org/2000/svg" xmlns:xlink="http://www.w3.org/1999/xlink" x="0px" y="0px"
	 viewBox="0 0 85 60" enable-background="new 0 0 85 60" xml:space="preserve">
<g id="menu">
</g>
<g id="Capa_2">
	<g>
		<g>
			<g>
				<path fill="#FFFFFF" d="M1,25.5c0-7.5,5.4-13,12.9-13c4.9,0,8.2,1.9,10.4,5.3l-3.9,2.6c-1.4-2.1-3.3-3.5-6.5-3.5
					c-4.7,0-7.8,3.7-7.8,8.6c0,4.8,3.1,8.5,7.9,8.5c3.4,0,5.6-1.7,7.1-3.9l4,2.6c-2.3,3.7-5.8,5.7-11.1,5.7C6.3,38.4,1,32.9,1,25.5z
					"/>
				<path fill="#FFFFFF" d="M54,37.5l11.9-20.3h-10v-4.3h17.8v0.5l-12,20.3h11.5V38H54V37.5z"/>
				<path fill="#FFFFFF" d="M79,12.9h5V38h-5V12.9z"/>
			</g>
			<path fill="#FFFFFF" d="M40.1,12.5c-7.2,0-13.4,5.3-13.4,13c0,4.1,1.8,7.6,4.6,9.9l-6.8,8.4c-0.8,1.1-0.5,2.6,0.6,3.3v0
				c1.1,0.8,2.6,0.5,3.3-0.6l5.4-9.5c1.9,0.9,4,1.5,6.3,1.5c7.3,0,13.4-5.4,13.4-13C53.4,17.8,47.4,12.5,40.1,12.5z M47.9,33.3
				c-1,1-2.2,1.8-3.5,2.4c-1.4,0.6-2.8,0.9-4.3,0.9s-2.9-0.3-4.3-0.9c-1.3-0.6-2.5-1.4-3.5-2.4c-1-1-1.8-2.2-2.4-3.5
				C29.3,28.4,29,27,29,25.5s0.3-2.9,0.9-4.3c0.6-1.3,1.4-2.5,2.4-3.5s2.2-1.8,3.5-2.4c1.4-0.6,2.8-0.9,4.3-0.9s2.9,0.3,4.3,0.9
				c1.3,0.6,2.5,1.4,3.5,2.4s1.8,2.2,2.4,3.5c0.6,1.4,0.9,2.8,0.9,4.3s-0.3,2.9-0.9,4.3C49.7,31.1,48.9,32.3,47.9,33.3z"/>
		</g>
		<g>
			<path fill="#FFFFFF" d="M37.6,28c-0.2,0-0.3,0.1-0.3,0.3v3c0,0.2,0.1,0.3,0.3,0.3c0.2,0,0.3-0.1,0.3-0.3v-3
				C37.9,28.1,37.7,28,37.6,28z"/>
			<path fill="#FFFFFF" d="M42.6,28c-0.2,0-0.3,0.1-0.3,0.3v3c0,0.1,0.1,0.3,0.2,0.3c0,0,0,0,0.1,0c0,0,0,0,0,0
				c0.2,0,0.3-0.2,0.3-0.3v-3C42.9,28.1,42.8,28,42.6,28z"/>
			<path fill="#FFFFFF" d="M40.1,27.3C40.1,27.3,40.1,27.3,40.1,27.3c-0.2,0-0.3,0.2-0.3,0.3v3.6c0,0.2,0.1,0.3,0.3,0.3
				c0,0,0,0,0.1,0s0,0,0.1,0c0.2,0,0.3-0.2,0.3-0.3v-3.6C40.4,27.4,40.3,27.3,40.1,27.3z"/>
			<path fill="#FFFFFF" d="M40.1,15.2c-5.7,0-10.3,4.6-10.3,10.3s4.6,10.3,10.3,10.3c5.7,0,10.3-4.6,10.3-10.3S45.7,15.2,40.1,15.2z
				 M45.8,26c-0.5,0.3-0.7,0.8-0.7,1.4v4.4c0,0.4-0.3,0.7-0.7,0.7h-8.6c-0.4,0-0.7-0.3-0.7-0.7v-4.4c0-0.6-0.3-1.1-0.7-1.4
				c-0.9-0.6-1.5-1.7-1.5-2.9c0-2,1.7-3.6,3.7-3.5c0.1,0,0.3,0,0.4,0c-0.8,1.1-1.1,2.4-1.1,2.4c0.6-1.3,1.8-3.6,4.2-3.6
				c2.4,0,3.7,2.3,4.2,3.6c0,0-0.3-1.3-1.1-2.3c0.1,0,0.3,0,0.4,0c2-0.1,3.7,1.5,3.7,3.5C47.3,24.3,46.7,25.4,45.8,26z"/>
		</g>
	</g>
</g>
</svg>
